# xmcd CD database file
#
# Track frame offsets:
#	150
#	9458
#	19240
#	28610
#	39363
#	51980
#	62258
#	76370
#	87305
#	99628
#	114000
#	126360
#	137773
#	147503
#	158490
#	168350
#	176230
#	186185
#	198983
#	210278
#	219715
#	232450
#
# Disc length: 3259 seconds
#
# Revision: 4
# Processed by: cddbd v1.5.2PL0 Copyright (c) Steve Scherf et al.
# Submitted via: CDex 1.95
#
DISCID=310cb916
DTITLE=Jim Reeves - The Magic Of Jim Reeves Cd 3/3
DYEAR=1992
DGENRE=Country
TTITLE0=I Won't Forget You
TTITLE1=When Two Worlds Collide
TTITLE2=There's A Heartache Following Me
TTITLE3=You're The Only Good Thing (That's Happened To Me)
TTITLE4=Not Until The Next Time
TTITLE5=Is It Really Over
TTITLE6=This Is It
TTITLE7=Angels Don't Lie
TTITLE8=Nobody's Fool
TTITLE9=Guilty
TTITLE10=A Letter To My Heart
TTITLE11=Adios Amigo
TTITLE12=I Won't Come In While He's There
TTITLE13=That's When I See The Blues (In Your Pretty Brown Eyes)
TTITLE14=It Hurts So Much To See You Go
TTITLE15=Trying To Forget
TTITLE16=But You Love Me, Daddy (With Steve Moore)
TTITLE17=Four Walls
TTITLE18=According To My Heart
TTITLE19=Billy Bayou
TTITLE20=Bimbo
TTITLE21=Mexican Joe
EXTD=YEAR: 1992
EXTT0=
EXTT1=
EXTT2=
EXTT3=
EXTT4=
EXTT5=
EXTT6=
EXTT7=
EXTT8=
EXTT9=
EXTT10=
EXTT11=
EXTT12=
EXTT13=
EXTT14=
EXTT15=
EXTT16=
EXTT17=
EXTT18=
EXTT19=
EXTT20=
EXTT21=
PLAYORDER=
